<svg xmlns="http://www.w3.org/2000/svg" width="111.022" height="111.022" viewBox="0 0 111.022 111.022">
  <g id="WallHanging" transform="translate(0)">
    <rect id="Rectangle_50" data-name="Rectangle 50" width="78.504" height="78.504" transform="translate(55.511) rotate(45)" fill="#007fff" opacity="0.498"/>
    <g id="WallHang" transform="translate(19.934 21.691)">
      <g id="Group_17" data-name="Group 17" transform="translate(0)">
        <path id="Path_77" data-name="Path 77" d="M41.012,2.5c-.349.686-.7,1.371-1.043,2.06a.677.677,0,0,1-.236.274c-.328.222-.652.448-.978.673-.056.039-.146.068-.009.133.09.043.011.119-.006.17C38.374,6.881,38,7.949,37.634,9.018q-1.356,3.934-2.708,7.868c-.055.159-.117.231-.3.211-.2-.024-.4-.007-.6-.023a.218.218,0,0,0-.222.113q-1.851,2.742-3.712,5.479a.261.261,0,0,0-.028.268c.093.249.165.5.259.751a.192.192,0,0,1-.046.223c-1.365,1.62-2.724,3.245-4.094,4.86a.635.635,0,0,0-.162.608c.241,1.121.46,2.245.691,3.368a.442.442,0,0,1-.037.262l-1.759,4.54a.522.522,0,0,0-.033.3q.375,2.154.741,4.311c.01.057.013.116.019.174s.04.049.064,0l.333-1.856a.3.3,0,0,1,.114-.174q2.92-2.557,5.837-5.118a.526.526,0,0,1,.2-.106q3.128-.949,6.255-1.905c.139-.043.191-.029.231.126.352,1.285.717,2.566,1.075,3.85a.536.536,0,0,0,.156.26c.224.208.438.427.666.631a.191.191,0,0,1,.052.275q-2.418,5.028-4.827,10.063c-.473.986-.944,1.973-1.425,2.956a.213.213,0,0,0,.066.306q.494.427.967.879c.108.1.178.093.293.012.615-.423,1.237-.833,1.854-1.254a.312.312,0,0,1,.286-.051c.343.093.692.167,1.04.243.1.021.142.037.112.163-.248,1.026-.485,2.054-.724,3.082a.309.309,0,0,1-.126.185q-1.021.765-2.036,1.536a.316.316,0,0,1-.213.066q-2.634-.039-5.267-.074a.251.251,0,0,1-.205-.113,4.979,4.979,0,0,1-.648-1.146c-.134-.278-.26-.565-.4-.84a.434.434,0,0,1-.025-.37q1.03-3.1,2.051-6.206a.327.327,0,0,0,.035-.256L28.08,51.6c-.088-.181-.17-.344-.249-.509-.457-.958-.915-1.915-1.366-2.876a.3.3,0,0,0-.219-.177c-.544-.146-1.086-.294-1.626-.454a.374.374,0,0,0-.355.057c-.534.365-1.074.72-1.617,1.083a.255.255,0,0,0,.214-.014c.515-.174,1.032-.343,1.547-.515a.5.5,0,0,1,.283-.016c.4.093.811.172,1.218.252a.374.374,0,0,1,.3.228q2.072,4.314,4.151,8.625c.071.148.178.139.287.17.69.2,1.381.393,2.068.6a.367.367,0,0,0,.342-.043c.231-.153.482-.28.713-.436a2.011,2.011,0,0,1,.988-.358c.589-.046,1.174-.127,1.759-.2a.189.189,0,0,1,.2.1q.61.95,1.227,1.9a.326.326,0,0,1,.061.2q-.059,1.5-.112,3a.165.165,0,0,1-.108.162q-1,.5-2,1a.3.3,0,0,1-.187.029l-3.31-.491c-.423-.062-.847-.125-1.272-.176a.342.342,0,0,1-.2-.093q-3.607-3.164-7.22-6.321c-.558-.485-1.194-.874-1.8-1.3a.314.314,0,0,1-.151-.3c.029-.884.046-1.768.068-2.653,0-.142,0-.284,0-.427-.161.021-.359-.008-.468.077s-.019.287-.027.438c-.053.947-.1,1.9-.148,2.843a.26.26,0,0,0,.125.271c.628.425,1.25.861,1.9,1.315l-.783.244c-.53.166-1.062.33-1.591.5a.278.278,0,0,1-.238-.013q-1.359-.712-2.722-1.417a.483.483,0,0,1-.185-.19c-.612-.964-1.2-1.94-1.849-2.883a2.573,2.573,0,0,1-.4-1.217c-.1-.838-.18-1.679-.329-2.509a16.644,16.644,0,0,0-.463-1.62q-.5-1.743-1-3.488a.656.656,0,0,0-.156-.284c-.482-.509-.959-1.026-1.442-1.537a.722.722,0,0,1-.178-.315q-.463-1.655-.933-3.308c-.07-.007-.093.057-.131.1L6.658,42.894a.2.2,0,0,0-.028.294Q8.5,46.3,10.35,49.414a.234.234,0,0,0,.278.13c.811-.106,1.623-.2,2.435-.3.29-.035.58-.069.869-.11.114-.016.17,0,.2.133.093.377.2.748.311,1.146H12.294c-.084,0-.154-.006-.206.1-.3.575-.605,1.145-.92,1.734.351.082.688.166,1.027.239a.255.255,0,0,1,.2.159c.324.7.656,1.407.984,2.111a.316.316,0,0,1,.046.166c-.051.562-.1,1.125-.152,1.706-.738-.311-1.458-.614-2.175-.917-.405-.171-.809-.346-1.216-.513A.253.253,0,0,1,9.717,55Q9.366,53.7,9,52.4c-.018-.062.008-.191-.143-.139-.021.007-.072-.064-.1-.1q-.646-.786-1.285-1.573a4.65,4.65,0,0,0-.4-.424Q3.581,46.807.092,43.453c-.109-.105-.124-.165-.035-.3.7-1.031,1.43-2.04,2.09-3.1.162-.26.16-.27.387-.072.111.1.162.111.255-.033Q4.1,37.9,5.423,35.865a.493.493,0,0,0,.085-.273c.005-.345.023-.689.03-1.034a.329.329,0,0,1,.08-.209Q6.959,32.627,8.293,30.9c.07-.093.126-.122.239-.072.177.078.363.135.545.2.053.02.1.056.157.019-.2-.215-.4-.437-.611-.642-.1-.1-.115-.146-.008-.255q1.148-1.184,2.279-2.383c.093-.1.135-.085.213.012.467.584.942,1.16,1.407,1.745.077.1.124.124.218.025s.3-.174.311-.3c.006-.1-.166-.213-.262-.318-.548-.6-1.09-1.206-1.647-1.8a2.966,2.966,0,0,1-.565-.833c-.093-.212-.208-.417-.331-.66l1.035.145c.078.011.093.085.124.139.64,1.065,1.282,2.129,1.915,3.2.088.149.139.179.273.046.149-.152.414-.255.463-.425s-.114-.392-.188-.591c-.347-.933-.692-1.866-1.046-2.8a.293.293,0,0,1,.034-.3c.567-.876,1.126-1.759,1.694-2.632a.213.213,0,0,0-.015-.3q-.433-.551-.839-1.123c-.093-.125-.139-.1-.221,0-.6.772-1.215,1.539-1.819,2.312a.509.509,0,0,1-.349.213,4.459,4.459,0,0,0-.6.139,2.447,2.447,0,0,1-.884-.046c-.019,0-.038-.015-.056-.013-.482.043-.685-.245-.875-.64a1.216,1.216,0,0,1-.085-.961c.417-1.367.8-2.745,1.19-4.119a.312.312,0,0,1,.173-.213q1.451-.747,2.9-1.5a.284.284,0,0,1,.27-.018q1.574.668,3.147,1.325a.417.417,0,0,1,.231.216q.72,1.475,1.45,2.944a1.189,1.189,0,0,1,.061.121c.08.227.079.227.3.116.818-.4,1.639-.8,2.453-1.217.18-.093.2-.04.224.129.065.455.151.907.231,1.364.085-.007.13-.068.185-.107q1.268-.923,2.531-1.851a.6.6,0,0,1,.373-.126c.481-.006.962-.026,1.443-.037a.342.342,0,0,0,.261-.1q1.535-1.581,3.079-3.155c.012-.013.022-.029.04-.054-.176-.136-.345-.278-.527-.4-.12-.081-.122-.136-.035-.252q1.4-1.862,2.786-3.731l4.845-6.5a6.792,6.792,0,0,0,.58-1.118c.35-.715.687-1.435,1.028-2.155a.836.836,0,0,1,.182-.249Q38.832.718,39.457.1c.029-.029.084-.046.072-.1h1.288a.351.351,0,0,1,.06.219c.065.6.1,1.2.116,1.8a.112.112,0,0,0,.019.053Z" transform="translate(0.001)" fill="#fff"/>
        <path id="Path_78" data-name="Path 78" d="M55.467,91.461c.009.035.017.088-.021.093-.056,0-.056-.049-.043-.093Z" transform="translate(-29.757 -49.13)" fill="#fff"/>
      </g>
      <rect id="Rectangle_19" data-name="Rectangle 19" width="3.251" height="64.796" transform="translate(46.627 1.575)" fill="#fff" opacity="0.5"/>
      <rect id="Rectangle_20" data-name="Rectangle 20" width="2.207" height="64.796" transform="translate(51.71 1.575)" fill="#fff" opacity="0.25"/>
      <g id="Group_18" data-name="Group 18" transform="translate(31.995 1.574)">
        <path id="Path_79" data-name="Path 79" d="M72.757,6.092a3.356,3.356,0,0,0,.324-.614c.053-.118.106-.235.163-.351.269-.548.536-1.113.794-1.66l.028-.067h-4.94v7.561Z" transform="translate(-69.127 -3.4)" fill="#fff" opacity="0.75"/>
        <path id="Path_80" data-name="Path 80" d="M79.086,3.4c0,.063.006.125.008.19l.024.042,0,.26v.665l-.376.741q-.387.761-.77,1.524a1.642,1.642,0,0,1-.563.648q-.287.194-.573.393a1.2,1.2,0,0,1-.065.154q-.379,1.111-.763,2.218l-.672,1.944q-1.18,3.425-2.356,6.85a1.191,1.191,0,0,1-1.163.874,1.393,1.393,0,0,1-.169-.01c-.034,0-.076-.006-.124-.006q-1.2,1.772-2.4,3.541V35.947q3.088-.935,6.173-1.88A1.316,1.316,0,0,1,75.692,34a1.094,1.094,0,0,1,1.068.866q.345,1.258.7,2.514.172.611.343,1.222c.07.066.139.133.208.2.117.113.234.226.355.335a1.157,1.157,0,0,1,.283,1.426q-1.911,3.973-3.815,7.949l-1.2,2.5q-.5,1.041-1,2.083l.142.128.652-.439.722-.487a1.3,1.3,0,0,1,.735-.231,1.36,1.36,0,0,1,.353.046c.286.077.579.139.889.21l.106.023a1.07,1.07,0,0,1,.851,1.342c-.209.868-.417,1.754-.614,2.611l-.108.463a1.29,1.29,0,0,1-.491.747q-.6.45-1.2.9l.006.008q.608.947,1.223,1.891a1.291,1.291,0,0,1,.218.766q-.059,1.5-.112,3a1.135,1.135,0,0,1-.648,1q-1,.494-1.994,1a1.269,1.269,0,0,1-.575.139,1.306,1.306,0,0,1-.194-.015l-1.049-.156-2.261-.335-.154-.023V68.2h12.8V3.4Z" transform="translate(-69.127 -3.4)" fill="#fff" opacity="0.75"/>
      </g>
    </g>
    <g id="Rectangle_12" data-name="Rectangle 12" transform="translate(55.511) rotate(45)" fill="none" stroke="#fff" stroke-width="3">
      <rect width="78.504" height="78.504" stroke="none"/>
      <rect x="1.5" y="1.5" width="75.504" height="75.504" fill="none"/>
    </g>
  </g>
</svg>
